<?xml version="1.0" encoding="utf-8"?>
<!-- Generator: Adobe Illustrator 26.1.0, SVG Export Plug-In . SVG Version: 6.00 Build 0)  -->
<svg version="1.1" id="Calque_1" xmlns="http://www.w3.org/2000/svg" xmlns:xlink="http://www.w3.org/1999/xlink" x="0px" y="0px"
	 viewBox="0 0 16 16" style="enable-background:new 0 0 16 16;" xml:space="preserve">
<style type="text/css">
	.st0{fill:#000091;}
</style>
<g>
	<path class="st0" d="M15.7,0.8c-0.1-0.3-0.3-0.5-0.5-0.5C14.9,0.2,8.4-1.1,4.6,2.7C1.3,6,1.9,11.4,2.1,12.9l-1.9,1.9
		c-0.3,0.3-0.3,0.7,0,1C0.3,15.9,0.5,16,0.7,16s0.4-0.1,0.5-0.2l1.9-1.9c0.5,0.1,1.4,0.2,2.6,0.2c2.3,0,5.4-0.5,7.6-2.7
		C17.1,7.6,15.8,1.1,15.7,0.8z M12.3,10.4c-2.8,2.8-7.4,2.3-8.9,2.1c-0.2-1.5-0.6-6.1,2.1-8.9c2.8-2.8,7.4-2.3,8.9-2.1
		C14.7,3,15.1,7.7,12.3,10.4z"/>
	<path class="st0" d="M11.6,3.9L7.9,8.6l-1.6-2c-0.2-0.3-0.7-0.4-1-0.1c-0.3,0.2-0.4,0.7-0.1,1l2.1,2.7c0.1,0.2,0.3,0.3,0.5,0.3
		c0.2,0,0.4-0.1,0.5-0.3l4.2-5.4c0.2-0.3,0.2-0.7-0.1-1C12.2,3.6,11.8,3.6,11.6,3.9z"/>
</g>
</svg>
