<svg xmlns="http://www.w3.org/2000/svg" viewBox="0 0 680.31 340.16"><defs><style>.cls-1{isolation:isolate;}.cls-2,.cls-3{fill:#000091;}.cls-3{mix-blend-mode:multiply;}.cls-4{fill:#ff000f;}</style></defs><g class="cls-1"><g id="Calque_1" data-name="Calque 1"><path class="cls-2" d="M479.94,111.49A7.53,7.53,0,0,1,472.4,104V62a7.54,7.54,0,0,1,15.08,0v42A7.54,7.54,0,0,1,479.94,111.49Z"/><circle class="cls-3" cx="479.94" cy="35.77" r="7.54"/><path class="cls-2" d="M431.56,43.67c-8.73,0-16,3.27-21,8.93-5-5.66-12.29-8.93-21-8.93-17,0-28.47,12.41-28.47,30.89V104a7.54,7.54,0,1,0,15.08,0V74.56c0-7.21,2.32-15.81,13.39-15.81,8.7,0,13.5,5.61,13.5,15.81V104a7.53,7.53,0,0,0,7.54,7.54h0a7.53,7.53,0,0,0,7.54-7.54V74.56c0-7.21,2.33-15.81,13.4-15.81,8.7,0,13.49,5.61,13.49,15.81V104a7.54,7.54,0,0,0,15.08,0V74.56C460.13,56.08,448.65,43.67,431.56,43.67Z"/><path class="cls-2" d="M464.77,311.93a34.21,34.21,0,1,1,17.9-63.36,7.54,7.54,0,1,1-7.9,12.84,19.14,19.14,0,1,0,.68,32.17,7.54,7.54,0,0,1,8.45,12.5A34,34,0,0,1,464.77,311.93Z"/><path class="cls-2" d="M533.53,311.93a34.21,34.21,0,1,1,34.21-34.21A34.25,34.25,0,0,1,533.53,311.93Zm0-53.34a19.13,19.13,0,1,0,19.12,19.13A19.15,19.15,0,0,0,533.53,258.59Z"/><path class="cls-2" d="M405.93,293.58a18.94,18.94,0,0,1-10.68,3.27,19.15,19.15,0,0,1-17.39-11.2,40,40,0,0,0,9.8,1.3,29.66,29.66,0,0,0,18.25-6c9.13-6.91,13.53-18.79,12.37-25.84a7.62,7.62,0,0,0-3.59-5.25,7.17,7.17,0,0,0-1.54-1.3,34.21,34.21,0,1,0,1.23,57.51,7.54,7.54,0,0,0-8.45-12.5Zm-10.68-35a19.09,19.09,0,0,1,7.58,1.57,17.7,17.7,0,0,1-6.65,9.22c-4.63,3.12-10.8,3.28-18.36.49A19.16,19.16,0,0,1,395.25,258.59Z"/><path class="cls-2" d="M458.77,211.39c-17.09,0-28.58-12.41-28.58-30.89V151.11a7.54,7.54,0,1,1,15.08,0V180.5c0,10.2,4.8,15.81,13.5,15.81,11.07,0,13.39-8.6,13.39-15.81V151.11a7.54,7.54,0,0,1,15.08,0V180.5C487.24,199,475.8,211.39,458.77,211.39Z"/><path class="cls-2" d="M410.55,211.39a7.54,7.54,0,0,1-7.54-7.54V174.46c0-7.21-2.32-15.81-13.39-15.81-8.71,0-13.5,5.61-13.5,15.81v29.39a7.54,7.54,0,0,1-15.08,0V174.46c0-18.48,11.48-30.89,28.58-30.89s28.47,12.41,28.47,30.89v29.39A7.54,7.54,0,0,1,410.55,211.39Z"/><path class="cls-2" d="M569.84,143.57c-8.73,0-16,3.27-21,8.93-5-5.66-12.29-8.93-21-8.93-17,0-28.47,12.41-28.47,30.89v29.39a7.54,7.54,0,1,0,15.08,0V174.46c0-7.21,2.32-15.81,13.39-15.81,8.7,0,13.5,5.61,13.5,15.81v29.39a7.53,7.53,0,0,0,7.54,7.54h0a7.53,7.53,0,0,0,7.54-7.54V174.46c0-7.21,2.33-15.81,13.4-15.81,8.7,0,13.49,5.61,13.49,15.81v29.39a7.54,7.54,0,1,0,15.08,0V174.46C598.41,156,586.93,143.57,569.84,143.57Z"/><path class="cls-2" d="M652.79,226.62h-42a7.54,7.54,0,1,1,0-15.08h42a7.54,7.54,0,1,1,0,15.08Z"/><path class="cls-2" d="M127,166.11a3.86,3.86,0,1,0,3.86,3.86A3.86,3.86,0,0,0,127,166.11Zm11.59,0a3.86,3.86,0,1,0,3.85,3.86A3.85,3.85,0,0,0,138.56,166.11Zm11.59,0A3.86,3.86,0,1,0,154,170,3.86,3.86,0,0,0,150.15,166.11Zm11.58,0a3.86,3.86,0,1,0,3.86,3.86A3.86,3.86,0,0,0,161.73,166.11Zm-81.1,0A3.86,3.86,0,1,0,84.48,170,3.85,3.85,0,0,0,80.63,166.11Zm11.59,0A3.86,3.86,0,1,0,96.07,170,3.86,3.86,0,0,0,92.22,166.11Zm11.58,0a3.86,3.86,0,1,0,3.85,3.86A3.85,3.85,0,0,0,103.8,166.11Zm11.59,0a3.86,3.86,0,1,0,3.85,3.86A3.86,3.86,0,0,0,115.39,166.11Zm57.93,0a3.86,3.86,0,1,0,3.85,3.86A3.85,3.85,0,0,0,173.32,166.11Zm34.76.39a3.47,3.47,0,1,0,3.47,3.47A3.47,3.47,0,0,0,208.08,166.5Zm-11.59-.39a3.86,3.86,0,1,0,3.86,3.86A3.85,3.85,0,0,0,196.49,166.11Zm23.17.77a3.09,3.09,0,1,0,3.09,3.09A3.08,3.08,0,0,0,219.66,166.88ZM45.87,173.43A3.47,3.47,0,1,0,42.4,170,3.46,3.46,0,0,0,45.87,173.43Zm11.58-7.32A3.86,3.86,0,1,0,61.31,170,3.85,3.85,0,0,0,57.45,166.11Zm11.59,0A3.86,3.86,0,1,0,72.9,170,3.85,3.85,0,0,0,69,166.11Zm162.21,2.31a1.55,1.55,0,1,0,1.54,1.55A1.54,1.54,0,0,0,231.25,168.42Zm-46.34-2.31a3.86,3.86,0,1,0,3.85,3.86A3.86,3.86,0,0,0,184.91,166.11ZM34.28,172.66a2.7,2.7,0,1,0-2.7-2.69A2.69,2.69,0,0,0,34.28,172.66Zm-11.59-1.15A1.55,1.55,0,1,0,21.14,170,1.54,1.54,0,0,0,22.69,171.51Zm104.28-17a3.86,3.86,0,1,0,3.86,3.86A3.86,3.86,0,0,0,127,154.52Zm11.59,0a3.86,3.86,0,1,0,3.85,3.86A3.85,3.85,0,0,0,138.56,154.52Zm11.59,0a3.86,3.86,0,1,0,3.85,3.86A3.86,3.86,0,0,0,150.15,154.52Zm11.58,0a3.86,3.86,0,1,0,3.86,3.86A3.86,3.86,0,0,0,161.73,154.52Zm-81.1,0a3.86,3.86,0,1,0,3.85,3.86A3.85,3.85,0,0,0,80.63,154.52Zm11.59,0a3.86,3.86,0,1,0,3.85,3.86A3.86,3.86,0,0,0,92.22,154.52Zm11.58,0a3.86,3.86,0,1,0,3.85,3.86A3.85,3.85,0,0,0,103.8,154.52Zm11.59,0a3.86,3.86,0,1,0,3.85,3.86A3.86,3.86,0,0,0,115.39,154.52Zm57.93,0a3.86,3.86,0,1,0,3.85,3.86A3.85,3.85,0,0,0,173.32,154.52Zm34.76.39a3.47,3.47,0,1,0,3.47,3.47A3.47,3.47,0,0,0,208.08,154.91Zm-11.59-.39a3.86,3.86,0,1,0,3.86,3.86A3.85,3.85,0,0,0,196.49,154.52Zm23.17.39a3.47,3.47,0,1,0,3.47,3.47A3.47,3.47,0,0,0,219.66,154.91ZM45.87,161.85a3.47,3.47,0,1,0-3.47-3.47A3.47,3.47,0,0,0,45.87,161.85Zm11.58-7.33a3.86,3.86,0,1,0,3.86,3.86A3.85,3.85,0,0,0,57.45,154.52Zm11.59,0a3.86,3.86,0,1,0,3.86,3.86A3.85,3.85,0,0,0,69,154.52Zm162.21,2.32a1.54,1.54,0,1,0,1.54,1.54A1.54,1.54,0,0,0,231.25,156.84Zm-46.34-2.32a3.86,3.86,0,1,0,3.85,3.86A3.86,3.86,0,0,0,184.91,154.52ZM34.28,161.07a2.7,2.7,0,1,0-2.7-2.69A2.69,2.69,0,0,0,34.28,161.07Zm-11.59-1.15a1.54,1.54,0,1,0-1.55-1.54A1.54,1.54,0,0,0,22.69,159.92Zm115.87-17a3.85,3.85,0,1,0,3.85,3.85A3.85,3.85,0,0,0,138.56,142.94Zm11.59,0a3.85,3.85,0,1,0,3.85,3.85A3.85,3.85,0,0,0,150.15,142.94Zm11.58,0a3.85,3.85,0,1,0,3.86,3.85A3.85,3.85,0,0,0,161.73,142.94Zm11.59,0a3.85,3.85,0,1,0,3.85,3.85A3.85,3.85,0,0,0,173.32,142.94Zm-81.1,0a3.85,3.85,0,1,0,3.85,3.85A3.85,3.85,0,0,0,92.22,142.94Zm11.58,0a3.85,3.85,0,1,0,3.85,3.85A3.85,3.85,0,0,0,103.8,142.94Zm11.59,0a3.85,3.85,0,1,0,3.85,3.85A3.85,3.85,0,0,0,115.39,142.94Zm11.58,0a3.85,3.85,0,1,0,3.86,3.85A3.85,3.85,0,0,0,127,142.94Zm57.94,0a3.85,3.85,0,1,0,3.85,3.85A3.85,3.85,0,0,0,184.91,142.94Zm34.75.38a3.47,3.47,0,1,0,3.47,3.47A3.48,3.48,0,0,0,219.66,143.32Zm-11.58,0a3.47,3.47,0,1,0,3.47,3.47A3.47,3.47,0,0,0,208.08,143.32Zm23.17,1.54a1.93,1.93,0,1,0,1.93,1.93A1.94,1.94,0,0,0,231.25,144.86Zm-173.8,5.4A3.47,3.47,0,1,0,54,146.79,3.47,3.47,0,0,0,57.45,150.26ZM69,142.94a3.85,3.85,0,1,0,3.86,3.85A3.85,3.85,0,0,0,69,142.94Zm11.59,0a3.85,3.85,0,1,0,3.85,3.85A3.85,3.85,0,0,0,80.63,142.94Zm115.86,0a3.85,3.85,0,1,0,3.86,3.85A3.85,3.85,0,0,0,196.49,142.94ZM45.87,149.87a3.08,3.08,0,1,0-3.08-3.08A3.08,3.08,0,0,0,45.87,149.87Zm-11.59-1.54a1.54,1.54,0,1,0-1.54-1.54A1.54,1.54,0,0,0,34.28,148.33Zm104.28-17a3.86,3.86,0,1,0,3.85,3.85A3.85,3.85,0,0,0,138.56,131.35Zm11.59,0A3.86,3.86,0,1,0,154,135.2,3.86,3.86,0,0,0,150.15,131.35Zm11.58,0a3.86,3.86,0,1,0,3.86,3.85A3.86,3.86,0,0,0,161.73,131.35Zm11.59,0a3.86,3.86,0,1,0,3.85,3.85A3.85,3.85,0,0,0,173.32,131.35Zm-81.1,0a3.86,3.86,0,1,0,3.85,3.85A3.86,3.86,0,0,0,92.22,131.35Zm11.58,0a3.86,3.86,0,1,0,3.85,3.85A3.85,3.85,0,0,0,103.8,131.35Zm11.59,0a3.86,3.86,0,1,0,3.85,3.85A3.86,3.86,0,0,0,115.39,131.35Zm11.58,0a3.86,3.86,0,1,0,3.86,3.85A3.86,3.86,0,0,0,127,131.35Zm57.94,0a3.86,3.86,0,1,0,3.85,3.85A3.86,3.86,0,0,0,184.91,131.35Zm34.75.39a3.47,3.47,0,1,0,3.47,3.46A3.47,3.47,0,0,0,219.66,131.74Zm-11.58,0a3.47,3.47,0,1,0,3.47,3.46A3.46,3.46,0,0,0,208.08,131.74Zm23.17,1.15a2.32,2.32,0,1,0,2.31,2.31A2.31,2.31,0,0,0,231.25,132.89Zm-173.8,5.78A3.47,3.47,0,1,0,54,135.2,3.47,3.47,0,0,0,57.45,138.67ZM69,131.35a3.86,3.86,0,1,0,3.86,3.85A3.85,3.85,0,0,0,69,131.35Zm11.59,0a3.86,3.86,0,1,0,3.85,3.85A3.85,3.85,0,0,0,80.63,131.35Zm115.86,0a3.86,3.86,0,1,0,3.86,3.85A3.85,3.85,0,0,0,196.49,131.35ZM45.87,137.9a2.7,2.7,0,1,0-2.7-2.7A2.7,2.7,0,0,0,45.87,137.9Zm-11.59-1.15a1.55,1.55,0,1,0-1.54-1.55A1.54,1.54,0,0,0,34.28,136.75Zm115.87-17a3.86,3.86,0,1,0,3.85,3.86A3.86,3.86,0,0,0,150.15,119.76Zm11.58,0a3.86,3.86,0,1,0,3.86,3.86A3.86,3.86,0,0,0,161.73,119.76Zm11.59,0a3.86,3.86,0,1,0,3.85,3.86A3.85,3.85,0,0,0,173.32,119.76Zm11.59,0a3.86,3.86,0,1,0,3.85,3.86A3.86,3.86,0,0,0,184.91,119.76Zm-81.11,0a3.86,3.86,0,1,0,3.85,3.86A3.85,3.85,0,0,0,103.8,119.76Zm11.59,0a3.86,3.86,0,1,0,3.85,3.86A3.86,3.86,0,0,0,115.39,119.76Zm11.58,0a3.86,3.86,0,1,0,3.86,3.86A3.86,3.86,0,0,0,127,119.76Zm11.59,0a3.86,3.86,0,1,0,3.85,3.86A3.85,3.85,0,0,0,138.56,119.76Zm57.93,0a3.86,3.86,0,1,0,3.86,3.86A3.85,3.85,0,0,0,196.49,119.76Zm34.76,1.16a2.7,2.7,0,1,0,2.7,2.7A2.7,2.7,0,0,0,231.25,120.92Zm-11.59-.77a3.47,3.47,0,1,0,3.47,3.47A3.47,3.47,0,0,0,219.66,120.15ZM69,127.09a3.47,3.47,0,1,0-3.47-3.47A3.47,3.47,0,0,0,69,127.09Zm11.59-7.33a3.86,3.86,0,1,0,3.85,3.86A3.85,3.85,0,0,0,80.63,119.76Zm11.59,0a3.86,3.86,0,1,0,3.85,3.86A3.86,3.86,0,0,0,92.22,119.76Zm115.86.39a3.47,3.47,0,1,0,3.47,3.47A3.47,3.47,0,0,0,208.08,120.15ZM57.45,126.32a2.7,2.7,0,1,0-2.69-2.7A2.7,2.7,0,0,0,57.45,126.32Zm-11.58-1.16a1.54,1.54,0,1,0-1.54-1.54A1.54,1.54,0,0,0,45.87,125.16Zm115.86-17a3.86,3.86,0,1,0,3.86,3.85A3.85,3.85,0,0,0,161.73,108.18Zm11.59,0a3.86,3.86,0,1,0,3.85,3.85A3.85,3.85,0,0,0,173.32,108.18Zm11.59,0a3.86,3.86,0,1,0,3.85,3.85A3.85,3.85,0,0,0,184.91,108.18Zm11.58,0a3.86,3.86,0,1,0,3.86,3.85A3.85,3.85,0,0,0,196.49,108.18Zm-81.1,0a3.86,3.86,0,1,0,3.85,3.85A3.85,3.85,0,0,0,115.39,108.18Zm11.58,0a3.86,3.86,0,1,0,3.86,3.85A3.85,3.85,0,0,0,127,108.18Zm11.59,0a3.86,3.86,0,1,0,3.85,3.85A3.85,3.85,0,0,0,138.56,108.18Zm11.59,0A3.86,3.86,0,1,0,154,112,3.85,3.85,0,0,0,150.15,108.18Zm57.93.38a3.47,3.47,0,1,0,3.47,3.47A3.47,3.47,0,0,0,208.08,108.56Zm23.17.77A2.7,2.7,0,1,0,234,112,2.7,2.7,0,0,0,231.25,109.33ZM80.63,115.5A3.47,3.47,0,1,0,77.16,112,3.47,3.47,0,0,0,80.63,115.5Zm11.59-7.32A3.86,3.86,0,1,0,96.07,112,3.85,3.85,0,0,0,92.22,108.18Zm11.58,0a3.86,3.86,0,1,0,3.85,3.85A3.85,3.85,0,0,0,103.8,108.18Zm115.86.38a3.47,3.47,0,1,0,3.47,3.47A3.48,3.48,0,0,0,219.66,108.56ZM69,114.73a2.7,2.7,0,1,0-2.69-2.7A2.7,2.7,0,0,0,69,114.73Zm-11.59-1.16A1.54,1.54,0,1,0,55.91,112,1.54,1.54,0,0,0,57.45,113.57Zm104.28-17a3.86,3.86,0,1,0,3.86,3.86A3.86,3.86,0,0,0,161.73,96.59Zm11.59,0a3.86,3.86,0,1,0,3.85,3.86A3.85,3.85,0,0,0,173.32,96.59Zm11.59,0a3.86,3.86,0,1,0,3.85,3.86A3.86,3.86,0,0,0,184.91,96.59Zm11.58,0a3.86,3.86,0,1,0,3.86,3.86A3.85,3.85,0,0,0,196.49,96.59Zm-81.1,0a3.86,3.86,0,1,0,3.85,3.86A3.86,3.86,0,0,0,115.39,96.59Zm11.58,0a3.86,3.86,0,1,0,3.86,3.86A3.86,3.86,0,0,0,127,96.59Zm11.59,0a3.86,3.86,0,1,0,3.85,3.86A3.85,3.85,0,0,0,138.56,96.59Zm11.59,0a3.86,3.86,0,1,0,3.85,3.86A3.86,3.86,0,0,0,150.15,96.59Zm57.93,0a3.86,3.86,0,1,0,3.85,3.86A3.86,3.86,0,0,0,208.08,96.59Zm23.17,1.16a2.7,2.7,0,1,0,2.7,2.7A2.7,2.7,0,0,0,231.25,97.75ZM80.63,103.53a3.09,3.09,0,1,0-3.08-3.08A3.08,3.08,0,0,0,80.63,103.53Zm11.59.38a3.47,3.47,0,1,0-3.47-3.46A3.46,3.46,0,0,0,92.22,103.91Zm11.58-7.32a3.86,3.86,0,1,0,3.85,3.86A3.85,3.85,0,0,0,103.8,96.59ZM219.66,97a3.47,3.47,0,1,0,3.47,3.47A3.47,3.47,0,0,0,219.66,97ZM69,103.14a2.7,2.7,0,1,0-2.69-2.69A2.69,2.69,0,0,0,69,103.14ZM57.45,102a1.55,1.55,0,1,0-1.54-1.54A1.54,1.54,0,0,0,57.45,102ZM173.32,85a3.86,3.86,0,1,0,3.85,3.85A3.85,3.85,0,0,0,173.32,85Zm11.59,0a3.86,3.86,0,1,0,3.85,3.85A3.85,3.85,0,0,0,184.91,85Zm11.58,0a3.86,3.86,0,1,0,3.86,3.85A3.85,3.85,0,0,0,196.49,85Zm11.59,0a3.86,3.86,0,1,0,3.85,3.85A3.85,3.85,0,0,0,208.08,85ZM127,85a3.86,3.86,0,1,0,3.86,3.85A3.85,3.85,0,0,0,127,85Zm11.59,0a3.86,3.86,0,1,0,3.85,3.85A3.85,3.85,0,0,0,138.56,85Zm11.59,0A3.86,3.86,0,1,0,154,88.86,3.85,3.85,0,0,0,150.15,85Zm11.58,0a3.86,3.86,0,1,0,3.86,3.85A3.85,3.85,0,0,0,161.73,85Zm57.93.38a3.47,3.47,0,1,0,3.47,3.47A3.48,3.48,0,0,0,219.66,85.39ZM92.22,92.33a3.47,3.47,0,1,0-3.47-3.47A3.46,3.46,0,0,0,92.22,92.33ZM103.8,85a3.86,3.86,0,1,0,3.85,3.85A3.85,3.85,0,0,0,103.8,85Zm11.59,0a3.86,3.86,0,1,0,3.85,3.85A3.85,3.85,0,0,0,115.39,85Zm115.86,1.16a2.7,2.7,0,1,0,2.7,2.69A2.69,2.69,0,0,0,231.25,86.17ZM80.63,91.56a2.7,2.7,0,1,0-2.7-2.7A2.7,2.7,0,0,0,80.63,91.56ZM69,90.4a1.54,1.54,0,1,0-1.54-1.54A1.54,1.54,0,0,0,69,90.4Zm115.87-17a3.86,3.86,0,1,0,3.85,3.85A3.85,3.85,0,0,0,184.91,73.42Zm11.58,0a3.86,3.86,0,1,0,3.86,3.85A3.85,3.85,0,0,0,196.49,73.42Zm11.59,0a3.86,3.86,0,1,0,3.85,3.85A3.85,3.85,0,0,0,208.08,73.42Zm11.58.38a3.47,3.47,0,1,0,3.47,3.47A3.48,3.48,0,0,0,219.66,73.8Zm-81.1-.38a3.86,3.86,0,1,0,3.85,3.85A3.85,3.85,0,0,0,138.56,73.42Zm11.59,0A3.86,3.86,0,1,0,154,77.27,3.85,3.85,0,0,0,150.15,73.42Zm11.58,0a3.86,3.86,0,1,0,3.86,3.85A3.85,3.85,0,0,0,161.73,73.42Zm11.59,0a3.86,3.86,0,1,0,3.85,3.85A3.85,3.85,0,0,0,173.32,73.42Zm57.93.77a3.09,3.09,0,1,0,3.08,3.08A3.08,3.08,0,0,0,231.25,74.19ZM103.8,80.74a3.47,3.47,0,1,0-3.47-3.47A3.47,3.47,0,0,0,103.8,80.74Zm11.59-7.32a3.86,3.86,0,1,0,3.85,3.85A3.85,3.85,0,0,0,115.39,73.42Zm11.58,0a3.86,3.86,0,1,0,3.86,3.85A3.85,3.85,0,0,0,127,73.42ZM92.22,80a2.7,2.7,0,1,0-2.7-2.7A2.69,2.69,0,0,0,92.22,80ZM80.63,78.81a1.54,1.54,0,1,0-1.54-1.54A1.54,1.54,0,0,0,80.63,78.81Zm127.45-17a3.86,3.86,0,1,0,3.85,3.86A3.86,3.86,0,0,0,208.08,61.83Zm11.58.39a3.47,3.47,0,1,0,3.47,3.47A3.47,3.47,0,0,0,219.66,62.22Zm11.59,6.55a3.09,3.09,0,1,0-3.08-3.08A3.08,3.08,0,0,0,231.25,68.77Zm-69.52-6.94a3.86,3.86,0,1,0,3.86,3.86A3.86,3.86,0,0,0,161.73,61.83Zm11.59,0a3.86,3.86,0,1,0,3.85,3.86A3.85,3.85,0,0,0,173.32,61.83Zm11.59,0a3.86,3.86,0,1,0,3.85,3.86A3.86,3.86,0,0,0,184.91,61.83Zm11.58,0a3.86,3.86,0,1,0,3.86,3.86A3.85,3.85,0,0,0,196.49,61.83ZM127,69.15a3.47,3.47,0,1,0-3.46-3.46A3.46,3.46,0,0,0,127,69.15Zm11.59-7.32a3.86,3.86,0,1,0,3.85,3.86A3.85,3.85,0,0,0,138.56,61.83Zm11.59,0A3.86,3.86,0,1,0,154,65.69,3.86,3.86,0,0,0,150.15,61.83Zm-34.76,6.55a2.7,2.7,0,1,0-2.7-2.69A2.69,2.69,0,0,0,115.39,68.38ZM103.8,67.23a1.54,1.54,0,1,0-1.54-1.54A1.54,1.54,0,0,0,103.8,67.23ZM219.66,57.18a3.08,3.08,0,1,0-3.08-3.08A3.08,3.08,0,0,0,219.66,57.18Zm11.59-.38a2.7,2.7,0,1,0-2.7-2.7A2.7,2.7,0,0,0,231.25,56.8Zm-57.93.77a3.47,3.47,0,1,0-3.47-3.47A3.47,3.47,0,0,0,173.32,57.57Zm11.59,0a3.47,3.47,0,1,0-3.47-3.47A3.46,3.46,0,0,0,184.91,57.57Zm11.58,0A3.47,3.47,0,1,0,193,54.1,3.47,3.47,0,0,0,196.49,57.57Zm11.59,0a3.47,3.47,0,1,0-3.47-3.47A3.47,3.47,0,0,0,208.08,57.57Zm-69.52-.39a3.08,3.08,0,1,0-3.08-3.08A3.08,3.08,0,0,0,138.56,57.18Zm11.59,0a3.08,3.08,0,1,0-3.09-3.08A3.08,3.08,0,0,0,150.15,57.18Zm11.58.39a3.47,3.47,0,1,0-3.46-3.47A3.47,3.47,0,0,0,161.73,57.57ZM127,56.41a2.31,2.31,0,1,0-2.31-2.31A2.31,2.31,0,0,0,127,56.41Zm-11.58-.77a1.54,1.54,0,1,0-1.54-1.54A1.54,1.54,0,0,0,115.39,55.64ZM196.49,46A3.47,3.47,0,1,0,193,42.51,3.47,3.47,0,0,0,196.49,46Zm11.59,0a3.47,3.47,0,1,0-3.47-3.47A3.47,3.47,0,0,0,208.08,46Zm11.58-.38a3.09,3.09,0,1,0-3.08-3.09A3.09,3.09,0,0,0,219.66,45.6Zm11.59-.39a2.7,2.7,0,1,0-2.7-2.7A2.7,2.7,0,0,0,231.25,45.21Zm-69.52-.38a2.32,2.32,0,1,0-2.31-2.32A2.32,2.32,0,0,0,161.73,44.83Zm11.59.38a2.7,2.7,0,1,0-2.7-2.7A2.7,2.7,0,0,0,173.32,45.21Zm11.59.39a3.09,3.09,0,1,0-3.09-3.09A3.08,3.08,0,0,0,184.91,45.6Zm-34.76-.77a2.32,2.32,0,1,0-2.32-2.32A2.32,2.32,0,0,0,150.15,44.83Zm-11.59-1.16a1.16,1.16,0,1,0-1.16-1.16A1.16,1.16,0,0,0,138.56,43.67Zm69.52-10.82a1.93,1.93,0,1,0-1.93-1.92A1.92,1.92,0,0,0,208.08,32.85Zm11.58.39a2.31,2.31,0,1,0-2.31-2.31A2.32,2.32,0,0,0,219.66,33.24Zm11.59.38a2.7,2.7,0,1,0-2.7-2.69A2.69,2.69,0,0,0,231.25,33.62Zm-34.76-1.15A1.54,1.54,0,1,0,195,30.93,1.54,1.54,0,0,0,196.49,32.47Zm-11.58-.39a1.16,1.16,0,1,0-1.16-1.15A1.15,1.15,0,0,0,184.91,32.08ZM115.39,200.87a3.86,3.86,0,1,0,3.85,3.85A3.85,3.85,0,0,0,115.39,200.87Zm11.58,0a3.86,3.86,0,1,0,3.86,3.85A3.85,3.85,0,0,0,127,200.87Zm11.59,0a3.86,3.86,0,1,0,3.85,3.85A3.85,3.85,0,0,0,138.56,200.87Zm11.59,0a3.86,3.86,0,1,0,3.85,3.85A3.85,3.85,0,0,0,150.15,200.87Zm-81.11,0a3.86,3.86,0,1,0,3.86,3.85A3.85,3.85,0,0,0,69,200.87Zm11.59,0a3.86,3.86,0,1,0,3.85,3.85A3.85,3.85,0,0,0,80.63,200.87Zm11.59,0a3.86,3.86,0,1,0,3.85,3.85A3.85,3.85,0,0,0,92.22,200.87Zm11.58,0a3.86,3.86,0,1,0,3.85,3.85A3.85,3.85,0,0,0,103.8,200.87Zm57.93,0a3.86,3.86,0,1,0,3.86,3.85A3.85,3.85,0,0,0,161.73,200.87Zm34.76.38a3.47,3.47,0,1,0,3.47,3.47A3.48,3.48,0,0,0,196.49,201.25Zm-11.58-.38a3.86,3.86,0,1,0,3.85,3.85A3.85,3.85,0,0,0,184.91,200.87Zm23.17.77a3.09,3.09,0,1,0,3.08,3.08A3.08,3.08,0,0,0,208.08,201.64Zm-173.8-.39a3.47,3.47,0,1,0,3.47,3.47A3.48,3.48,0,0,0,34.28,201.25Zm11.59-.38a3.86,3.86,0,1,0,3.85,3.85A3.85,3.85,0,0,0,45.87,200.87Zm11.58,0a3.86,3.86,0,1,0,3.86,3.85A3.85,3.85,0,0,0,57.45,200.87Zm162.21,2.31a1.54,1.54,0,1,0,1.54,1.54A1.54,1.54,0,0,0,219.66,203.18Zm-46.34-2.31a3.86,3.86,0,1,0,3.85,3.85A3.85,3.85,0,0,0,173.32,200.87ZM22.69,202a2.7,2.7,0,1,0,2.69,2.7A2.7,2.7,0,0,0,22.69,202Zm92.7-12.74a3.86,3.86,0,1,0,3.85,3.86A3.86,3.86,0,0,0,115.39,189.28Zm11.58,0a3.86,3.86,0,1,0,3.86,3.86A3.86,3.86,0,0,0,127,189.28Zm11.59,0a3.86,3.86,0,1,0,3.85,3.86A3.85,3.85,0,0,0,138.56,189.28Zm11.59,0a3.86,3.86,0,1,0,3.85,3.86A3.86,3.86,0,0,0,150.15,189.28Zm-81.11,0a3.86,3.86,0,1,0,3.86,3.86A3.85,3.85,0,0,0,69,189.28Zm11.59,0a3.86,3.86,0,1,0,3.85,3.86A3.85,3.85,0,0,0,80.63,189.28Zm11.59,0a3.86,3.86,0,1,0,3.85,3.86A3.86,3.86,0,0,0,92.22,189.28Zm11.58,0a3.86,3.86,0,1,0,3.85,3.86A3.85,3.85,0,0,0,103.8,189.28Zm57.93,0a3.86,3.86,0,1,0,3.86,3.86A3.86,3.86,0,0,0,161.73,189.28Zm34.76,0a3.86,3.86,0,1,0,3.86,3.86A3.85,3.85,0,0,0,196.49,189.28Zm-11.58,0a3.86,3.86,0,1,0,3.85,3.86A3.86,3.86,0,0,0,184.91,189.28Zm23.17.39a3.47,3.47,0,1,0,3.47,3.47A3.47,3.47,0,0,0,208.08,189.67Zm-173.8,0a3.47,3.47,0,1,0,3.47,3.47A3.47,3.47,0,0,0,34.28,189.67Zm11.59-.39a3.86,3.86,0,1,0,3.85,3.86A3.85,3.85,0,0,0,45.87,189.28Zm11.58,0a3.86,3.86,0,1,0,3.86,3.86A3.85,3.85,0,0,0,57.45,189.28Zm162.21,1.93a1.93,1.93,0,1,0,1.93,1.93A1.92,1.92,0,0,0,219.66,191.21Zm-46.34-1.93a3.86,3.86,0,1,0,3.85,3.86A3.85,3.85,0,0,0,173.32,189.28ZM22.69,190.44a2.7,2.7,0,1,0,2.69,2.7A2.7,2.7,0,0,0,22.69,190.44ZM127,177.7a3.86,3.86,0,1,0,3.86,3.85A3.85,3.85,0,0,0,127,177.7Zm11.59,0a3.86,3.86,0,1,0,3.85,3.85A3.85,3.85,0,0,0,138.56,177.7Zm11.59,0a3.86,3.86,0,1,0,3.85,3.85A3.85,3.85,0,0,0,150.15,177.7Zm11.58,0a3.86,3.86,0,1,0,3.86,3.85A3.85,3.85,0,0,0,161.73,177.7Zm-81.1,0a3.86,3.86,0,1,0,3.85,3.85A3.85,3.85,0,0,0,80.63,177.7Zm11.59,0a3.86,3.86,0,1,0,3.85,3.85A3.85,3.85,0,0,0,92.22,177.7Zm11.58,0a3.86,3.86,0,1,0,3.85,3.85A3.85,3.85,0,0,0,103.8,177.7Zm11.59,0a3.86,3.86,0,1,0,3.85,3.85A3.85,3.85,0,0,0,115.39,177.7Zm57.93,0a3.86,3.86,0,1,0,3.85,3.85A3.85,3.85,0,0,0,173.32,177.7Zm34.76.38a3.47,3.47,0,1,0,3.47,3.47A3.47,3.47,0,0,0,208.08,178.08Zm-11.59-.38a3.86,3.86,0,1,0,3.86,3.85A3.85,3.85,0,0,0,196.49,177.7Zm23.17,1.16a2.7,2.7,0,1,0,2.7,2.69A2.68,2.68,0,0,0,219.66,178.86ZM45.87,185a3.47,3.47,0,1,0-3.47-3.47A3.47,3.47,0,0,0,45.87,185Zm11.58-7.32a3.86,3.86,0,1,0,3.86,3.85A3.85,3.85,0,0,0,57.45,177.7Zm11.59,0a3.86,3.86,0,1,0,3.86,3.85A3.85,3.85,0,0,0,69,177.7ZM231.25,180a1.54,1.54,0,1,0,1.54,1.54A1.54,1.54,0,0,0,231.25,180Zm-46.34-2.31a3.86,3.86,0,1,0,3.85,3.85A3.85,3.85,0,0,0,184.91,177.7ZM34.28,184.64a3.09,3.09,0,1,0-3.08-3.09A3.08,3.08,0,0,0,34.28,184.64Zm-11.59-1.55a1.54,1.54,0,1,0-1.55-1.54A1.54,1.54,0,0,0,22.69,183.09Zm81.11,52.54a3.85,3.85,0,1,0,3.85,3.85A3.85,3.85,0,0,0,103.8,235.63Zm11.59,0a3.85,3.85,0,1,0,3.85,3.85A3.85,3.85,0,0,0,115.39,235.63Zm11.58,0a3.85,3.85,0,1,0,3.86,3.85A3.85,3.85,0,0,0,127,235.63Zm11.59,0a3.85,3.85,0,1,0,3.85,3.85A3.85,3.85,0,0,0,138.56,235.63Zm-81.11,0a3.85,3.85,0,1,0,3.86,3.85A3.85,3.85,0,0,0,57.45,235.63Zm11.59,0a3.85,3.85,0,1,0,3.86,3.85A3.85,3.85,0,0,0,69,235.63Zm11.59,0a3.85,3.85,0,1,0,3.85,3.85A3.85,3.85,0,0,0,80.63,235.63Zm11.59,0a3.85,3.85,0,1,0,3.85,3.85A3.85,3.85,0,0,0,92.22,235.63Zm57.93,0a3.85,3.85,0,1,0,3.85,3.85A3.85,3.85,0,0,0,150.15,235.63Zm34.76.77a3.08,3.08,0,1,0,3.08,3.08A3.08,3.08,0,0,0,184.91,236.4ZM173.32,236a3.47,3.47,0,1,0,3.47,3.47A3.47,3.47,0,0,0,173.32,236Zm23.17,1.54a1.93,1.93,0,1,0,1.93,1.93A1.93,1.93,0,0,0,196.49,237.55Zm-173.8,0a1.93,1.93,0,1,0,1.92,1.93A1.93,1.93,0,0,0,22.69,237.55Zm11.59-1.15a3.08,3.08,0,1,0,3.08,3.08A3.08,3.08,0,0,0,34.28,236.4Zm11.59-.77a3.85,3.85,0,1,0,3.85,3.85A3.85,3.85,0,0,0,45.87,235.63Zm162.21,2.31a1.54,1.54,0,1,0,1.54,1.54A1.54,1.54,0,0,0,208.08,237.94Zm-46.35-2.31a3.85,3.85,0,1,0,3.86,3.85A3.85,3.85,0,0,0,161.73,235.63ZM103.8,224a3.86,3.86,0,1,0,3.85,3.86A3.85,3.85,0,0,0,103.8,224Zm11.59,0a3.86,3.86,0,1,0,3.85,3.86A3.86,3.86,0,0,0,115.39,224ZM127,224a3.86,3.86,0,1,0,3.86,3.86A3.86,3.86,0,0,0,127,224Zm11.59,0a3.86,3.86,0,1,0,3.85,3.86A3.85,3.85,0,0,0,138.56,224Zm-81.11,0a3.86,3.86,0,1,0,3.86,3.86A3.85,3.85,0,0,0,57.45,224ZM69,224a3.86,3.86,0,1,0,3.86,3.86A3.85,3.85,0,0,0,69,224Zm11.59,0a3.86,3.86,0,1,0,3.85,3.86A3.85,3.85,0,0,0,80.63,224Zm11.59,0a3.86,3.86,0,1,0,3.85,3.86A3.86,3.86,0,0,0,92.22,224Zm57.93,0A3.86,3.86,0,1,0,154,227.9,3.86,3.86,0,0,0,150.15,224Zm34.76.39a3.47,3.47,0,1,0,3.46,3.47A3.47,3.47,0,0,0,184.91,224.43ZM173.32,224a3.86,3.86,0,1,0,3.85,3.86A3.85,3.85,0,0,0,173.32,224Zm23.17.77a3.09,3.09,0,1,0,3.09,3.09A3.08,3.08,0,0,0,196.49,224.81ZM22.69,226a1.93,1.93,0,1,0,1.92,1.93A1.92,1.92,0,0,0,22.69,226Zm11.59-1.54a3.47,3.47,0,1,0,3.47,3.47A3.47,3.47,0,0,0,34.28,224.43ZM45.87,224a3.86,3.86,0,1,0,3.85,3.86A3.85,3.85,0,0,0,45.87,224Zm162.21,2.31a1.55,1.55,0,1,0,1.54,1.55A1.54,1.54,0,0,0,208.08,226.35ZM161.73,224a3.86,3.86,0,1,0,3.86,3.86A3.86,3.86,0,0,0,161.73,224Zm-46.34-11.58a3.85,3.85,0,1,0,3.85,3.85A3.85,3.85,0,0,0,115.39,212.46Zm11.58,0a3.85,3.85,0,1,0,3.86,3.85A3.85,3.85,0,0,0,127,212.46Zm11.59,0a3.85,3.85,0,1,0,3.85,3.85A3.85,3.85,0,0,0,138.56,212.46Zm11.59,0a3.85,3.85,0,1,0,3.85,3.85A3.85,3.85,0,0,0,150.15,212.46Zm-81.11,0a3.85,3.85,0,1,0,3.86,3.85A3.85,3.85,0,0,0,69,212.46Zm11.59,0a3.85,3.85,0,1,0,3.85,3.85A3.85,3.85,0,0,0,80.63,212.46Zm11.59,0a3.85,3.85,0,1,0,3.85,3.85A3.85,3.85,0,0,0,92.22,212.46Zm11.58,0a3.85,3.85,0,1,0,3.85,3.85A3.85,3.85,0,0,0,103.8,212.46Zm57.93,0a3.85,3.85,0,1,0,3.86,3.85A3.85,3.85,0,0,0,161.73,212.46Zm34.76.38a3.47,3.47,0,1,0,3.47,3.47A3.47,3.47,0,0,0,196.49,212.84Zm-11.58-.38a3.85,3.85,0,1,0,3.85,3.85A3.85,3.85,0,0,0,184.91,212.46Zm23.17,1.15a2.7,2.7,0,1,0,2.7,2.7A2.7,2.7,0,0,0,208.08,213.61Zm-173.8-.77a3.47,3.47,0,1,0,3.47,3.47A3.47,3.47,0,0,0,34.28,212.84Zm11.59-.38a3.85,3.85,0,1,0,3.85,3.85A3.85,3.85,0,0,0,45.87,212.46Zm11.58,0a3.85,3.85,0,1,0,3.86,3.85A3.85,3.85,0,0,0,57.45,212.46Zm162.21,2.31a1.54,1.54,0,1,0,1.54,1.54A1.54,1.54,0,0,0,219.66,214.77Zm-46.34-2.31a3.85,3.85,0,1,0,3.85,3.85A3.85,3.85,0,0,0,173.32,212.46ZM22.69,213.61a2.7,2.7,0,1,0,2.69,2.7A2.7,2.7,0,0,0,22.69,213.61Zm92.7,57.55a3.08,3.08,0,1,0,3.08,3.08A3.09,3.09,0,0,0,115.39,271.16Zm11.58,0a3.08,3.08,0,1,0,3.09,3.08A3.08,3.08,0,0,0,127,271.16Zm11.59.38a2.7,2.7,0,1,0,2.7,2.7A2.7,2.7,0,0,0,138.56,271.54Zm11.59.77a1.93,1.93,0,1,0,1.92,1.93A1.93,1.93,0,0,0,150.15,272.31ZM69,270.77a3.47,3.47,0,1,0,3.47,3.47A3.48,3.48,0,0,0,69,270.77Zm11.59,0a3.47,3.47,0,1,0,3.47,3.47A3.47,3.47,0,0,0,80.63,270.77Zm11.59,0a3.47,3.47,0,1,0,3.46,3.47A3.47,3.47,0,0,0,92.22,270.77Zm11.58,0a3.47,3.47,0,1,0,3.47,3.47A3.48,3.48,0,0,0,103.8,270.77Zm57.93,1.93a1.54,1.54,0,1,0,1.54,1.54A1.54,1.54,0,0,0,161.73,272.7ZM34.28,276.55A2.31,2.31,0,1,0,32,274.24,2.3,2.3,0,0,0,34.28,276.55Zm11.59-5.39A3.08,3.08,0,1,0,49,274.24,3.08,3.08,0,0,0,45.87,271.16Zm11.58-.39a3.47,3.47,0,1,0,3.47,3.47A3.48,3.48,0,0,0,57.45,270.77Zm57.94-11.58a3.47,3.47,0,1,0,3.47,3.46A3.46,3.46,0,0,0,115.39,259.19Zm11.58,0a3.47,3.47,0,1,0,3.47,3.46A3.46,3.46,0,0,0,127,259.19Zm11.59,0a3.47,3.47,0,1,0,3.47,3.46A3.47,3.47,0,0,0,138.56,259.19Zm11.59,0a3.47,3.47,0,1,0,3.47,3.46A3.46,3.46,0,0,0,150.15,259.19ZM69,258.8a3.86,3.86,0,1,0,3.86,3.85A3.85,3.85,0,0,0,69,258.8Zm11.59,0a3.86,3.86,0,1,0,3.85,3.85A3.85,3.85,0,0,0,80.63,258.8Zm11.59.39a3.47,3.47,0,1,0,3.46,3.46A3.46,3.46,0,0,0,92.22,259.19Zm11.58,0a3.47,3.47,0,1,0,3.47,3.46A3.47,3.47,0,0,0,103.8,259.19Zm57.93.38a3.09,3.09,0,1,0,3.09,3.08A3.08,3.08,0,0,0,161.73,259.57Zm23.18,1.54a1.55,1.55,0,1,0,1.54,1.54A1.54,1.54,0,0,0,184.91,261.11Zm-150.63-.38a1.93,1.93,0,1,0,1.93,1.92A1.93,1.93,0,0,0,34.28,260.73Zm11.59-1.54a3.47,3.47,0,1,0,3.47,3.46A3.47,3.47,0,0,0,45.87,259.19Zm11.58,0a3.47,3.47,0,1,0,3.47,3.46A3.47,3.47,0,0,0,57.45,259.19Zm115.87,1.92a1.55,1.55,0,1,0,1.54,1.54A1.54,1.54,0,0,0,173.32,261.11ZM127,247.21a3.86,3.86,0,1,0,3.86,3.86A3.86,3.86,0,0,0,127,247.21Zm11.59,0a3.86,3.86,0,1,0,3.85,3.86A3.85,3.85,0,0,0,138.56,247.21Zm11.59,0a3.86,3.86,0,1,0,3.85,3.86A3.86,3.86,0,0,0,150.15,247.21Zm11.58.39a3.47,3.47,0,1,0,3.47,3.47A3.46,3.46,0,0,0,161.73,247.6Zm-81.1-.39a3.86,3.86,0,1,0,3.85,3.86A3.85,3.85,0,0,0,80.63,247.21Zm11.59,0a3.86,3.86,0,1,0,3.85,3.86A3.86,3.86,0,0,0,92.22,247.21Zm11.58,0a3.86,3.86,0,1,0,3.85,3.86A3.85,3.85,0,0,0,103.8,247.21Zm11.59,0a3.86,3.86,0,1,0,3.85,3.86A3.86,3.86,0,0,0,115.39,247.21Zm57.93.77a3.09,3.09,0,1,0,3.08,3.09A3.08,3.08,0,0,0,173.32,248Zm-127.45-.77a3.86,3.86,0,1,0,3.85,3.86A3.85,3.85,0,0,0,45.87,247.21Zm11.58,0a3.86,3.86,0,1,0,3.86,3.86A3.85,3.85,0,0,0,57.45,247.21Zm11.59,0a3.86,3.86,0,1,0,3.86,3.86A3.85,3.85,0,0,0,69,247.21Zm115.87,2.32a1.54,1.54,0,1,0,1.54,1.54A1.54,1.54,0,0,0,184.91,249.53Zm-150.63-.77a2.31,2.31,0,1,0,2.31,2.31A2.3,2.3,0,0,0,34.28,248.76Zm-11.59.77a1.54,1.54,0,1,0,1.54,1.54A1.54,1.54,0,0,0,22.69,249.53Zm23.18,57.93A1.54,1.54,0,1,0,47.41,309,1.54,1.54,0,0,0,45.87,307.46Zm-11.59,0A1.54,1.54,0,1,0,35.82,309,1.54,1.54,0,0,0,34.28,307.46Zm-11.59,0A1.54,1.54,0,1,0,24.23,309,1.54,1.54,0,0,0,22.69,307.46Zm57.94-11.58a1.54,1.54,0,1,0,1.54,1.54A1.54,1.54,0,0,0,80.63,295.88Zm11.59,0a1.54,1.54,0,1,0,1.54,1.54A1.54,1.54,0,0,0,92.22,295.88Zm-46.35-.77a2.31,2.31,0,1,0,2.31,2.31A2.3,2.3,0,0,0,45.87,295.11Zm11.58.38a1.93,1.93,0,1,0,1.93,1.93A1.92,1.92,0,0,0,57.45,295.49Zm11.59.39a1.54,1.54,0,1,0,1.54,1.54A1.54,1.54,0,0,0,69,295.88Zm-34.76-1.16a2.7,2.7,0,1,0,2.7,2.7A2.7,2.7,0,0,0,34.28,294.72Zm-11.59,1.16a1.54,1.54,0,1,0,1.54,1.54A1.54,1.54,0,0,0,22.69,295.88Zm115.87-11.59a1.54,1.54,0,1,0,1.54,1.54A1.54,1.54,0,0,0,138.56,284.29Zm-46.34-1.16a2.7,2.7,0,1,0,2.69,2.7A2.7,2.7,0,0,0,92.22,283.13Zm11.58.38a2.32,2.32,0,1,0,2.31,2.32A2.31,2.31,0,0,0,103.8,283.51Zm11.59.39a1.93,1.93,0,1,0,1.92,1.93A1.92,1.92,0,0,0,115.39,283.9Zm11.58.39a1.54,1.54,0,1,0,1.54,1.54A1.54,1.54,0,0,0,127,284.29Zm-69.52-1.55a3.09,3.09,0,1,0,3.09,3.09A3.08,3.08,0,0,0,57.45,282.74Zm11.59,0a3.09,3.09,0,1,0,3.09,3.09A3.08,3.08,0,0,0,69,282.74Zm11.59.39a2.7,2.7,0,1,0,2.7,2.7A2.7,2.7,0,0,0,80.63,283.13Zm-34.76-.39A3.09,3.09,0,1,0,49,285.83,3.08,3.08,0,0,0,45.87,282.74Zm-11.59,5.4A2.32,2.32,0,1,0,32,285.83,2.31,2.31,0,0,0,34.28,288.14Zm-11.59-27a1.55,1.55,0,1,0,1.54,1.54A1.54,1.54,0,0,0,22.69,261.11Zm0,11.59a1.54,1.54,0,1,0,1.54,1.54A1.54,1.54,0,0,0,22.69,272.7ZM173.32,32.08a1.16,1.16,0,1,0-1.16-1.15A1.15,1.15,0,0,0,173.32,32.08Z"/><path class="cls-4" d="M161.73,282.74a3.09,3.09,0,1,0,3.09,3.09A3.08,3.08,0,0,0,161.73,282.74Zm0,12a2.7,2.7,0,1,0,2.7,2.7A2.69,2.69,0,0,0,161.73,294.72Zm0,12.74a1.54,1.54,0,1,0,1.54,1.54A1.54,1.54,0,0,0,161.73,307.46Zm11.59-24.72a3.09,3.09,0,1,0,3.08,3.09A3.08,3.08,0,0,0,173.32,282.74Zm0-6.19a2.31,2.31,0,1,0-2.31-2.31A2.3,2.3,0,0,0,173.32,276.55Zm0,18.17a2.7,2.7,0,1,0,2.7,2.7A2.7,2.7,0,0,0,173.32,294.72Zm0,12.74a1.54,1.54,0,1,0,1.54,1.54A1.54,1.54,0,0,0,173.32,307.46Zm11.59-36.3a3.08,3.08,0,1,0,3.08,3.08A3.08,3.08,0,0,0,184.91,271.16Zm0,12a2.7,2.7,0,1,0,2.69,2.7A2.7,2.7,0,0,0,184.91,283.13Zm0,12.36a1.93,1.93,0,1,0,1.92,1.93A1.92,1.92,0,0,0,184.91,295.49Zm11.58-24.33a3.08,3.08,0,1,0,3.09,3.08A3.08,3.08,0,0,0,196.49,271.16Zm0-12a3.47,3.47,0,1,0,3.47,3.46A3.47,3.47,0,0,0,196.49,259.19Zm0-5.81a2.31,2.31,0,1,0-2.31-2.31A2.31,2.31,0,0,0,196.49,253.38Zm0,30.13a2.32,2.32,0,1,0,2.31,2.32A2.32,2.32,0,0,0,196.49,283.51Zm0,12.37a1.54,1.54,0,1,0,1.54,1.54A1.54,1.54,0,0,0,196.49,295.88Zm11.59-36.31a3.09,3.09,0,1,0,3.08,3.08A3.08,3.08,0,0,0,208.08,259.57Zm0-12a3.47,3.47,0,1,0,3.47,3.47A3.47,3.47,0,0,0,208.08,247.6Zm0,24.33a2.31,2.31,0,1,0,2.31,2.31A2.3,2.3,0,0,0,208.08,271.93Zm0,12.36a1.54,1.54,0,1,0,1.54,1.54A1.54,1.54,0,0,0,208.08,284.29Zm11.58-36.69a3.47,3.47,0,1,0,3.47,3.47A3.47,3.47,0,0,0,219.66,247.6Zm0-12a3.85,3.85,0,1,0,3.86,3.85A3.85,3.85,0,0,0,219.66,235.63Zm0-5.42a2.32,2.32,0,1,0-2.31-2.31A2.32,2.32,0,0,0,219.66,230.21Zm0,29.75a2.7,2.7,0,1,0,2.7,2.69A2.68,2.68,0,0,0,219.66,260Zm0,12.35a1.93,1.93,0,1,0,1.93,1.93A1.93,1.93,0,0,0,219.66,272.31Zm11.59-52.92a3.08,3.08,0,1,0-3.08-3.08A3.08,3.08,0,0,0,231.25,219.39Zm0-12.36a2.31,2.31,0,1,0-2.31-2.31A2.3,2.3,0,0,0,231.25,207Zm0-11.58a2.32,2.32,0,1,0-2.31-2.31A2.31,2.31,0,0,0,231.25,195.45Zm0,52.15a3.47,3.47,0,1,0,3.47,3.47A3.47,3.47,0,0,0,231.25,247.6Zm0-12a3.85,3.85,0,1,0,3.85,3.85A3.85,3.85,0,0,0,231.25,235.63Zm0-11.59a3.86,3.86,0,1,0,3.85,3.86A3.85,3.85,0,0,0,231.25,224Zm0,35.92a2.7,2.7,0,1,0,2.7,2.69A2.69,2.69,0,0,0,231.25,260Zm0,12.74a1.54,1.54,0,1,0,1.54,1.54A1.54,1.54,0,0,0,231.25,272.7Zm11.59-111.63a2.7,2.7,0,1,0-2.7-2.69A2.69,2.69,0,0,0,242.84,161.07Zm0-12a2.31,2.31,0,1,0-2.31-2.31A2.31,2.31,0,0,0,242.84,149.1Zm0-11.58a2.32,2.32,0,1,0-2.31-2.32A2.32,2.32,0,0,0,242.84,137.52Zm0-11.59a2.31,2.31,0,1,0-2.31-2.31A2.31,2.31,0,0,0,242.84,125.93Zm0,74.94a3.86,3.86,0,1,0,3.85,3.85A3.85,3.85,0,0,0,242.84,200.87Zm0-11.59a3.86,3.86,0,1,0,3.85,3.86A3.86,3.86,0,0,0,242.84,189.28Zm0-4.26a3.47,3.47,0,1,0-3.47-3.47A3.47,3.47,0,0,0,242.84,185Zm0-12a3.09,3.09,0,1,0-3.09-3.08A3.08,3.08,0,0,0,242.84,173.05Zm0-59.09a1.93,1.93,0,1,0-1.93-1.93A1.92,1.92,0,0,0,242.84,114Zm0,122.44a3.08,3.08,0,1,0,3.08,3.08A3.09,3.09,0,0,0,242.84,236.4Zm0-12.36a3.86,3.86,0,1,0,3.85,3.86A3.86,3.86,0,0,0,242.84,224Zm0-11.58a3.85,3.85,0,1,0,3.85,3.85A3.85,3.85,0,0,0,242.84,212.46Zm0-110.47a1.55,1.55,0,1,0-1.54-1.54A1.54,1.54,0,0,0,242.84,102Zm0,146.77a2.31,2.31,0,1,0,2.31,2.31A2.3,2.3,0,0,0,242.84,248.76Zm0,12.35a1.55,1.55,0,1,0,1.54,1.54A1.54,1.54,0,0,0,242.84,261.11Zm11.58-118.17a3.85,3.85,0,1,0,3.86,3.85A3.85,3.85,0,0,0,254.42,142.94Zm0-11.59a3.86,3.86,0,1,0,3.86,3.85A3.86,3.86,0,0,0,254.42,131.35Zm0-11.59a3.86,3.86,0,1,0,3.86,3.86A3.86,3.86,0,0,0,254.42,119.76Zm0-4.65a3.08,3.08,0,1,0-3.08-3.08A3.08,3.08,0,0,0,254.42,115.11Zm0,74.17a3.86,3.86,0,1,0,3.86,3.86A3.86,3.86,0,0,0,254.42,189.28Zm0-11.58a3.86,3.86,0,1,0,3.86,3.85A3.85,3.85,0,0,0,254.42,177.7Zm0-11.59a3.86,3.86,0,1,0,3.86,3.86A3.86,3.86,0,0,0,254.42,166.11Zm0-11.59a3.86,3.86,0,1,0,3.86,3.86A3.86,3.86,0,0,0,254.42,154.52Zm0-51.76a2.32,2.32,0,1,0-2.31-2.31A2.32,2.32,0,0,0,254.42,102.76Zm0,122.05a3.09,3.09,0,1,0,3.09,3.09A3.08,3.08,0,0,0,254.42,224.81Zm0-12a3.47,3.47,0,1,0,3.47,3.47A3.46,3.46,0,0,0,254.42,212.84Zm0-12a3.86,3.86,0,1,0,3.86,3.85A3.85,3.85,0,0,0,254.42,200.87Zm0,36.3a2.31,2.31,0,1,0,2.32,2.31A2.31,2.31,0,0,0,254.42,237.17Zm0,12.36a1.54,1.54,0,1,0,1.55,1.54A1.54,1.54,0,0,0,254.42,249.53ZM266,119.76a3.86,3.86,0,1,0,3.85,3.86A3.85,3.85,0,0,0,266,119.76Zm0-11.58a3.86,3.86,0,1,0,3.85,3.85A3.85,3.85,0,0,0,266,108.18Zm0-4.65a3.09,3.09,0,1,0-3.08-3.08A3.08,3.08,0,0,0,266,103.53Zm0,62.58a3.86,3.86,0,1,0,3.85,3.86A3.85,3.85,0,0,0,266,166.11Zm0-11.59a3.86,3.86,0,1,0,3.85,3.86A3.85,3.85,0,0,0,266,154.52Zm0-11.58a3.85,3.85,0,1,0,3.85,3.85A3.85,3.85,0,0,0,266,142.94Zm0-11.59a3.86,3.86,0,1,0,3.85,3.85A3.85,3.85,0,0,0,266,131.35Zm0,69.9a3.47,3.47,0,1,0,3.47,3.47A3.47,3.47,0,0,0,266,201.25Zm0-12a3.86,3.86,0,1,0,3.85,3.86A3.85,3.85,0,0,0,266,189.28Zm0-11.58a3.86,3.86,0,1,0,3.85,3.85A3.85,3.85,0,0,0,266,177.7Zm0,35.91a2.7,2.7,0,1,0,2.7,2.7A2.7,2.7,0,0,0,266,213.61Zm0,12.74a1.55,1.55,0,1,0,1.54,1.55A1.54,1.54,0,0,0,266,226.35ZM277.6,108.18a3.86,3.86,0,1,0,3.85,3.85A3.85,3.85,0,0,0,277.6,108.18Zm0-4.65a3.09,3.09,0,1,0-3.09-3.08A3.08,3.08,0,0,0,277.6,103.53Zm0,51.76a3.09,3.09,0,1,0,3.08,3.09A3.09,3.09,0,0,0,277.6,155.29Zm0-12a3.47,3.47,0,1,0,3.46,3.47A3.47,3.47,0,0,0,277.6,143.32Zm0-11.58a3.47,3.47,0,1,0,3.46,3.46A3.46,3.46,0,0,0,277.6,131.74Zm0-12a3.86,3.86,0,1,0,3.85,3.86A3.86,3.86,0,0,0,277.6,119.76Zm0,70.68a2.7,2.7,0,1,0,2.69,2.7A2.7,2.7,0,0,0,277.6,190.44Zm0-11.58a2.7,2.7,0,1,0,2.69,2.69A2.69,2.69,0,0,0,277.6,178.86Zm0-12a3.09,3.09,0,1,0,3.08,3.09A3.09,3.09,0,0,0,277.6,166.88Zm0,35.92a1.93,1.93,0,1,0,1.92,1.92A1.92,1.92,0,0,0,277.6,202.8Zm0,12a1.54,1.54,0,1,0,1.54,1.54A1.54,1.54,0,0,0,277.6,214.77Zm11.58-82.65a3.09,3.09,0,1,0,3.09,3.08A3.08,3.08,0,0,0,289.18,132.12Zm0-11.58a3.08,3.08,0,1,0,3.09,3.08A3.08,3.08,0,0,0,289.18,120.54Zm0-11.59a3.08,3.08,0,1,0,3.09,3.08A3.08,3.08,0,0,0,289.18,109Zm0-11.59a3.09,3.09,0,1,0,3.09,3.09A3.08,3.08,0,0,0,289.18,97.36Zm0,70.68a1.93,1.93,0,1,0,1.93,1.93A1.92,1.92,0,0,0,289.18,168Zm0-12a2.31,2.31,0,1,0,2.32,2.31A2.31,2.31,0,0,0,289.18,156.07Zm0-12a2.7,2.7,0,1,0,2.7,2.7A2.69,2.69,0,0,0,289.18,144.09Zm0,35.54a1.93,1.93,0,1,0,1.93,1.92A1.92,1.92,0,0,0,289.18,179.63Zm0,12a1.55,1.55,0,1,0,1.54,1.55A1.54,1.54,0,0,0,289.18,191.59Zm11.59-69.9a1.93,1.93,0,1,0,1.93,1.93A1.93,1.93,0,0,0,300.77,121.69Zm0-11.58A1.93,1.93,0,1,0,302.7,112,1.93,1.93,0,0,0,300.77,110.11Zm0-11.59a1.93,1.93,0,1,0,1.93,1.93A1.93,1.93,0,0,0,300.77,98.52Zm0,35.14a1.55,1.55,0,1,0,1.54,1.54A1.54,1.54,0,0,0,300.77,133.66Zm0,11.59a1.54,1.54,0,1,0,1.54,1.54A1.54,1.54,0,0,0,300.77,145.25ZM127,294.34a3.08,3.08,0,1,0,3.09,3.08A3.08,3.08,0,0,0,127,294.34Zm0,12a2.7,2.7,0,1,0,2.7,2.7A2.69,2.69,0,0,0,127,306.3Zm11.59-12a3.08,3.08,0,1,0,3.08,3.08A3.08,3.08,0,0,0,138.56,294.34Zm0,12a2.7,2.7,0,1,0,2.7,2.7A2.7,2.7,0,0,0,138.56,306.3Zm11.59-18.16a2.32,2.32,0,1,0-2.32-2.31A2.32,2.32,0,0,0,150.15,288.14Zm0,6.2a3.08,3.08,0,1,0,3.08,3.08A3.08,3.08,0,0,0,150.15,294.34Zm0,12.73a1.93,1.93,0,1,0,1.92,1.93A1.92,1.92,0,0,0,150.15,307.07Zm-57.93,0A1.93,1.93,0,1,0,94.14,309,1.92,1.92,0,0,0,92.22,307.07Zm11.58-.38a2.31,2.31,0,1,0,2.31,2.31A2.3,2.3,0,0,0,103.8,306.69Zm0-11.58a2.31,2.31,0,1,0,2.31,2.31A2.3,2.3,0,0,0,103.8,295.11Zm11.59-.39a2.7,2.7,0,1,0,2.7,2.7A2.7,2.7,0,0,0,115.39,294.72Zm0,11.58a2.7,2.7,0,1,0,2.7,2.7A2.7,2.7,0,0,0,115.39,306.3Zm-34.76,1.16A1.54,1.54,0,1,0,82.17,309,1.54,1.54,0,0,0,80.63,307.46Zm-11.59,0A1.54,1.54,0,1,0,70.58,309,1.54,1.54,0,0,0,69,307.46Zm-11.59,0A1.54,1.54,0,1,0,59,309,1.54,1.54,0,0,0,57.45,307.46ZM300.77,86.94a1.93,1.93,0,1,0,1.93,1.92A1.93,1.93,0,0,0,300.77,86.94Zm-11.59,4.23a2.31,2.31,0,1,0-2.31-2.31A2.31,2.31,0,0,0,289.18,91.17Zm-11.58.39a2.7,2.7,0,1,0-2.7-2.7A2.69,2.69,0,0,0,277.6,91.56ZM266,90.79a1.93,1.93,0,1,0-1.93-1.93A1.93,1.93,0,0,0,266,90.79ZM300.77,79.2a1.93,1.93,0,1,0-1.93-1.93A1.93,1.93,0,0,0,300.77,79.2Zm-11.59-.39a1.54,1.54,0,1,0-1.54-1.54A1.54,1.54,0,0,0,289.18,78.81Zm-11.58-.38a1.16,1.16,0,1,0-1.16-1.16A1.15,1.15,0,0,0,277.6,78.43Zm-23.18,12a1.54,1.54,0,1,0-1.54-1.54A1.54,1.54,0,0,0,254.42,90.4Z"/></g></g></svg>